<svg version="1.0" xmlns="http://www.w3.org/2000/svg"
 width="128.000000pt" height="128.000000pt" viewBox="0 0 128.000000 128.000000"
 preserveAspectRatio="xMidYMid meet">

<g transform="translate(0.000000,128.000000) scale(0.100000,-0.100000)"
fill="#000000" stroke="none">
<path d="M71 1262 c-71 -38 -71 -36 -71 -517 0 -566 -21 -528 295 -533 174 -3
203 -1 214 12 11 13 11 19 1 31 -10 12 -46 15 -205 15 -107 0 -201 3 -210 6
-27 11 -45 60 -45 126 l0 64 63 62 c34 34 67 62 71 62 5 0 35 -25 67 -55 32
-30 63 -55 70 -55 7 0 81 68 165 152 l153 151 36 -31 c40 -36 48 -38 65 -17
10 12 6 22 -28 55 -69 69 -81 64 -248 -102 l-143 -141 -50 46 c-69 65 -103 65
-172 0 l-50 -47 3 317 c3 314 3 317 26 339 23 23 23 23 347 23 324 0 324 0
347 -23 22 -22 23 -31 28 -230 5 -199 6 -207 25 -207 19 0 20 8 23 210 2 196
1 212 -18 243 -36 59 -54 62 -407 62 -289 0 -321 -2 -352 -18z"/>
<path d="M214 999 c-34 -17 -57 -66 -51 -106 12 -74 89 -113 152 -78 93 49 61
196 -42 194 -21 0 -47 -5 -59 -10z m88 -56 c26 -23 23 -59 -7 -79 -51 -33
-104 21 -71 71 19 29 51 32 78 8z"/>
<path d="M828 676 c-145 -52 -228 -160 -236 -311 -5 -106 21 -178 91 -252 92
-97 214 -133 340 -99 205 56 314 293 222 482 -35 70 -116 146 -188 172 -66 25
-171 29 -229 8z m229 -65 c107 -54 167 -148 167 -260 0 -166 -129 -295 -295
-295 -195 0 -333 190 -273 380 24 77 105 162 179 187 66 23 165 17 222 -12z"/>
<path d="M908 453 l-3 -78 -78 -3 c-74 -3 -78 -4 -75 -25 3 -20 9 -22 80 -25
l77 -3 3 -77 c3 -69 5 -77 23 -77 18 0 20 8 23 77 l3 77 77 3 c69 3 77 5 77
23 0 18 -8 20 -77 23 l-77 3 -3 77 c-3 71 -5 77 -25 80 -21 3 -22 -1 -25 -75z"/>
</g>
</svg>
