<svg version="1.0" xmlns="http://www.w3.org/2000/svg"
 width="128.000000pt" height="128.000000pt" viewBox="0 0 128.000000 128.000000"
 preserveAspectRatio="xMidYMid meet">

<g transform="translate(0.000000,128.000000) scale(0.100000,-0.100000)"
fill="#000000" stroke="none">
<path d="M503 1265 c-53 -23 -73 -67 -73 -161 0 -60 4 -83 14 -87 25 -10 36
16 36 86 0 62 3 71 29 98 l29 29 221 0 c122 0 221 -2 221 -4 0 -2 -42 -18 -94
-36 -51 -17 -102 -40 -112 -51 -18 -20 -19 -50 -24 -473 l-5 -451 -108 0
c-107 0 -109 1 -133 28 -20 24 -24 39 -24 96 0 68 -11 94 -36 84 -10 -4 -14
-27 -14 -87 0 -144 39 -176 215 -176 l105 0 0 -40 c0 -21 5 -50 11 -63 12 -27
58 -57 87 -57 11 0 100 27 198 60 145 49 184 66 207 90 l28 31 -3 519 -3 520
-28 27 -27 28 -343 2 c-278 2 -348 0 -374 -12z m717 -64 c6 -13 10 -191 10
-510 0 -470 -1 -492 -19 -510 -11 -11 -97 -45 -191 -76 -163 -53 -173 -55
-196 -40 l-24 15 0 504 c0 452 2 505 16 517 25 22 314 117 356 118 27 1 40 -4
48 -18z"/>
<path d="M323 944 c-4 -11 21 -43 83 -105 l89 -89 -236 0 c-198 0 -239 -2
-249 -15 -10 -12 -10 -18 0 -30 10 -13 51 -15 249 -15 l236 0 -89 -89 c-62
-62 -87 -94 -83 -105 4 -9 12 -16 19 -16 7 0 67 54 133 120 l120 120 -120 120
c-66 66 -126 120 -133 120 -7 0 -15 -7 -19 -16z"/>
</g>
</svg>
