<svg version="1.0" xmlns="http://www.w3.org/2000/svg"
 width="128.000000pt" height="128.000000pt" viewBox="0 0 128.000000 128.000000"
 preserveAspectRatio="xMidYMid meet">

<g transform="translate(0.000000,128.000000) scale(0.100000,-0.100000)"
fill="#000000" stroke="none">
<path d="M65 1271 c-11 -5 -29 -19 -40 -31 -19 -21 -20 -38 -23 -529 -1 -278
0 -515 2 -526 11 -44 46 -63 228 -124 101 -34 191 -61 201 -61 28 0 74 30 86
57 6 13 11 42 11 63 l0 40 105 0 c123 0 165 13 195 62 18 29 20 50 20 194 0
128 -3 163 -14 167 -30 12 -36 -16 -36 -164 0 -142 -1 -149 -24 -176 -24 -27
-26 -28 -133 -28 l-108 0 -5 451 c-5 423 -6 453 -24 473 -10 11 -62 35 -115
53 l-96 33 200 3 c232 3 257 0 285 -35 18 -23 20 -40 20 -172 0 -148 6 -176
36 -164 11 4 14 39 14 167 0 144 -2 165 -20 194 -37 60 -53 62 -417 61 -180 0
-337 -4 -348 -8z m225 -102 c85 -29 163 -58 173 -67 16 -14 17 -51 17 -509 0
-301 -4 -501 -10 -512 -5 -10 -17 -21 -26 -25 -22 -8 -352 102 -376 126 -17
17 -18 45 -18 509 0 319 4 497 10 510 17 30 60 24 230 -32z"/>
<path d="M1020 945 c-10 -13 2 -29 76 -105 l88 -90 -236 0 c-197 0 -238 -2
-248 -15 -10 -12 -10 -18 0 -30 10 -13 51 -15 248 -15 l236 0 -88 -90 c-74
-76 -86 -92 -76 -105 7 -8 17 -15 23 -15 17 0 237 223 237 240 0 17 -220 240
-237 240 -6 0 -16 -7 -23 -15z"/>
</g>
</svg>
